<svg width="20" height="17" viewBox="0 0 20 17" fill="none" xmlns="http://www.w3.org/2000/svg">
<path d="M14.6751 6.70706L11.7841 2.37057L10.7896 2.88075L13.3394 6.70706H6.9792L9.50595 2.88075L8.51144 2.37057L5.62042 6.70706H1.91992L3.90316 14.8699H16.4039L18.3871 6.70706H14.6751ZM15.4672 13.8495H4.83985L3.35387 7.72741H4.94971L4.44667 8.49267L5.44118 9.00285L6.29114 7.72741H14.0159L14.8601 9.00285L15.8546 8.49267L15.3574 7.72741H16.959L15.4672 13.8495Z" fill="#FF7F00"/>
<path d="M9.5752 9.25793H10.7316V12.319H9.5752V9.25793Z" fill="#FF7F00"/>
<path d="M6.68408 9.25793H7.84049V12.319H6.68408V9.25793Z" fill="#FF7F00"/>
<path d="M12.4663 9.25793H13.6227V12.319H12.4663V9.25793Z" fill="#FF7F00"/>
</svg>
