<svg width="50" height="50" viewBox="0 0 50 50" fill="none" xmlns="http://www.w3.org/2000/svg">
<g clip-path="url(#clip0_37_51)">
<path d="M25 3.71094C27.876 3.71094 30.6631 4.27344 33.2852 5.38281C35.8193 6.45508 38.0967 7.99023 40.0537 9.94629C42.0098 11.9023 43.5459 14.1797 44.6172 16.7148C45.7266 19.3369 46.2891 22.125 46.2891 25C46.2891 27.875 45.7266 30.6631 44.6172 33.2852C43.5449 35.8193 42.0098 38.0967 40.0537 40.0537C38.0977 42.0098 35.8203 43.5459 33.2852 44.6172C30.6631 45.7266 27.875 46.2891 25 46.2891C22.125 46.2891 19.3369 45.7266 16.7148 44.6172C14.1807 43.5449 11.9033 42.0098 9.94629 40.0537C7.99023 38.0977 6.4541 35.8203 5.38281 33.2852C4.27344 30.6631 3.71094 27.875 3.71094 25C3.71094 22.125 4.27344 19.3369 5.38281 16.7148C6.45508 14.1807 7.99023 11.9033 9.94629 9.94629C11.9023 7.99023 14.1797 6.4541 16.7148 5.38281C19.3369 4.27344 22.125 3.71094 25 3.71094ZM25 0C11.1934 0 0 11.1934 0 25C0 38.8066 11.1934 50 25 50C38.8066 50 50 38.8076 50 25C50 11.1924 38.8066 0 25 0Z" fill="#FF7F00"/>
<path d="M32.082 34.0488C31.6074 34.0488 31.1328 33.8682 30.7705 33.5059L23.6885 26.4238C23.3408 26.0762 23.1445 25.6035 23.1445 25.1123V10.4414C23.1445 9.41699 23.9756 8.58594 25 8.58594C26.0244 8.58594 26.8555 9.41699 26.8555 10.4414V24.3428L33.3945 30.8818C34.1191 31.6064 34.1191 32.7812 33.3945 33.5059C33.0322 33.8682 32.5576 34.0488 32.083 34.0488H32.082Z" fill="#FF7F00"/>
</g>
<defs>
<clipPath id="clip0_37_51">
<rect width="50" height="50" fill="white"/>
</clipPath>
</defs>
</svg>
