<svg width="58" height="47" viewBox="0 0 58 47" fill="none" xmlns="http://www.w3.org/2000/svg">
<path d="M58 7.05C58 5.18022 57.3453 3.38703 56.1799 2.0649C55.0145 0.742766 53.4338 0 51.7857 0H6.21429C4.56615 0 2.98553 0.742766 1.82012 2.0649C0.654718 3.38703 0 5.18022 0 7.05V39.95C0 41.8198 0.654718 43.613 1.82012 44.9351C2.98553 46.2572 4.56615 47 6.21429 47H51.7857C53.4338 47 55.0145 46.2572 56.1799 44.9351C57.3453 43.613 58 41.8198 58 39.95V7.05ZM6.21429 4.7H51.7857C52.3351 4.7 52.862 4.94759 53.2504 5.3883C53.6389 5.82901 53.8571 6.42674 53.8571 7.05V7.896L29 20.915L4.14286 7.896V7.05C4.14286 6.42674 4.3611 5.82901 4.74956 5.3883C5.13803 4.94759 5.66491 4.7 6.21429 4.7ZM51.7857 42.3H6.21429C5.66491 42.3 5.13803 42.0524 4.74956 41.6117C4.3611 41.171 4.14286 40.5733 4.14286 39.95V13.066L26.9286 25.004V28.2C26.9286 28.8233 27.1468 29.421 27.5353 29.8617C27.9237 30.3024 28.4506 30.55 29 30.55C29.5494 30.55 30.0763 30.3024 30.4647 29.8617C30.8532 29.421 31.0714 28.8233 31.0714 28.2V25.004L53.8571 13.066V39.95C53.8571 40.5733 53.6389 41.171 53.2504 41.6117C52.862 42.0524 52.3351 42.3 51.7857 42.3Z" fill="#FF7F00"/>
</svg>
