<svg width="50" height="62" viewBox="0 0 50 62" fill="none" xmlns="http://www.w3.org/2000/svg">
<path d="M7.71401 0.00143234C6.85277 0.0332953 6.09617 0.589312 5.4629 1.36398L4.40633 2.65445L15.857 16.9178L17.5193 14.8843C18.5211 13.6588 18.521 11.6353 17.5193 10.4098L10.1233 1.36398C9.40691 0.487589 8.57521 -0.0309484 7.71401 0.00143234ZM3.18487 4.14462L1.97183 5.62653C-0.0130912 8.05473 2.21995e-06 11.232 2.21995e-06 12.6985C2.21995e-06 18.7669 1.98313 29.2583 14.0333 43.9997C26.0834 58.7412 34.661 61.1692 39.6216 61.1692C40.8205 61.1692 43.4176 61.1852 45.4024 58.757L46.4994 57.415L35.0487 43.1516L33.8474 44.6233C33.1355 45.4942 32.6102 45.5982 32.0993 45.5247C31.5886 45.4515 31.0605 45.0899 30.6743 44.7241C28.5686 42.7297 25.1593 39.875 21.2829 35.1329C17.4066 30.3908 15.073 26.218 13.4427 23.6419C13.1439 23.1695 12.8483 22.5318 12.7883 21.9068C12.728 21.2819 12.8205 20.6311 13.5319 19.7602L14.6373 18.408L3.18487 4.14462ZM39.6619 38.8171C38.9984 38.8171 38.3357 39.1242 37.8348 39.7371L36.2668 41.6575L47.7192 55.9228L48.8868 54.4945C49.52 53.7198 49.9724 52.7859 49.9989 51.7323C50.0249 50.6787 49.6031 49.6614 48.8868 48.785L41.4907 39.7371C40.9899 39.1244 40.3255 38.8171 39.6619 38.8171Z" fill="#FF7F00"/>
</svg>
